<?xml version="1.0" encoding="UTF-8"?><svg id="Ebene_1" xmlns="http://www.w3.org/2000/svg" viewBox="0 0 222.59 56.69"><defs><style>.cls-1{fill:#66c4dc;}.cls-2{fill:#009cc4;}.cls-3{fill:#99d7e7;}.cls-4{fill:#33b0d0;}</style></defs><g><path class="cls-4" d="M47.6,7.99l-6.33,6.67c.48,.46,.94,.93,1.37,1.44l6.99-5.97c-.64-.75-1.32-1.46-2.03-2.14Z"/><path class="cls-3" d="M44.17,5.2l-2.76,4.01c.5,.35,.99,.71,1.47,1.1l3.06-3.78c-.57-.46-1.16-.91-1.77-1.33Z"/><path class="cls-1" d="M39.67,2.68l-2.66,5.98c.69,.31,1.37,.65,2.02,1.03l3.27-5.66c-.85-.49-1.73-.94-2.63-1.34Z"/><path class="cls-1" d="M34.78,1.02l-2.15,8.95c.65,.16,1.28,.34,1.91,.56l3.07-8.68c-.92-.33-1.87-.6-2.83-.84Z"/><path class="cls-2" d="M30.41,.34l-.6,7.67c.54,.04,1.07,.11,1.6,.19l1.21-7.61c-.72-.11-1.46-.19-2.2-.25Z"/><path class="cls-1" d="M25.15,5.31c1-.13,2.01-.2,3.05-.2V.24c-1.25,0-2.47,.09-3.68,.25l.63,4.82Z"/><path class="cls-2" d="M22.8,10.22c.47-.14,.96-.27,1.45-.37L22.34,.86c-.73,.15-1.44,.34-2.15,.55l2.61,8.82Z"/><path class="cls-1" d="M18.15,7.38c.55-.26,1.11-.5,1.68-.72l-1.74-4.54c-.69,.27-1.37,.55-2.04,.87l2.09,4.39Z"/><path class="cls-3" d="M16.24,13.67c.77-.63,1.6-1.18,2.46-1.68l-4.6-7.97c-1.28,.74-2.5,1.58-3.65,2.51l5.79,7.14Z"/><path class="cls-1" d="M6.76,10.13l3.7,3.16c.53-.62,1.09-1.21,1.68-1.77l-3.35-3.53c-.71,.68-1.39,1.39-2.03,2.14Z"/><path class="cls-4" d="M4.16,13.71l7.85,4.81c.26-.42,.54-.84,.83-1.24l-7.45-5.41c-.43,.6-.85,1.21-1.23,1.84Z"/><path class="cls-1" d="M1.38,19.73l6.22,2.02c.35-1.09,.79-2.13,1.3-3.14l-5.83-2.97c-.67,1.31-1.24,2.67-1.7,4.09Z"/><path class="cls-4" d="M5.15,24.79c.1-.61,.22-1.21,.36-1.8l-4.73-1.14c-.17,.71-.32,1.44-.43,2.17l4.81,.76Z"/><path class="cls-3" d="M0,28.44H9.19c0-.5,.04-1,.08-1.49L.1,26.23C.04,26.96,0,27.69,0,28.44Z"/><path class="cls-2" d="M.1,30.65c.1,1.24,.27,2.46,.52,3.65l4.76-1.01c-.21-.99-.35-1.99-.43-3.02L.1,30.65Z"/><path class="cls-2" d="M2.14,39.23l8.49-3.52c-.25-.61-.47-1.24-.66-1.88l-8.82,2.61c.28,.95,.61,1.88,.98,2.78Z"/><path class="cls-1" d="M3.08,41.24c.45,.88,.94,1.73,1.48,2.55l4.08-2.65c-.44-.68-.85-1.39-1.22-2.11l-4.33,2.21Z"/><path class="cls-1" d="M7.25,47.31l5.73-5.16c-.36-.4-.7-.81-1.03-1.24l-6.11,4.69c.45,.59,.92,1.16,1.41,1.7Z"/><path class="cls-2" d="M8.79,48.89c.71,.68,1.46,1.32,2.24,1.92l5.6-7.3c-.53-.4-1.03-.83-1.51-1.29l-6.33,6.67Z"/><path class="cls-1" d="M12.84,52.08c1.23,.8,2.53,1.51,3.89,2.11l2.66-5.98c-1.04-.46-2.04-1.01-2.99-1.62l-3.56,5.49Z"/><path class="cls-3" d="M23.06,56.16c.72,.13,1.45,.24,2.19,.32l.51-4.84c-.61-.06-1.22-.16-1.81-.27l-.89,4.78Z"/><path class="cls-4" d="M28.2,56.64c1.25,0,2.47-.09,3.68-.25l-1.2-9.12c-.81,.11-1.64,.18-2.48,.18-.17,0-.33-.02-.5-.03l-.24,9.2c.25,0,.49,.02,.74,.02Z"/><path class="cls-3" d="M34.35,49.2c-.54,.16-1.09,.3-1.65,.42l1.36,6.4c.73-.15,1.44-.34,2.15-.55l-1.86-6.27Z"/><path class="cls-4" d="M36.82,45.36c-.59,.3-1.19,.57-1.82,.81l3.3,8.59c.92-.35,1.82-.76,2.7-1.2l-4.18-8.2Z"/><path class="cls-4" d="M41.1,44.38c-.69,.56-1.43,1.07-2.2,1.54l4.03,6.57c1.05-.65,2.06-1.36,3.01-2.13l-4.84-5.97Z"/><path class="cls-2" d="M42.64,40.78c-.43,.5-.89,.98-1.37,1.44l6.33,6.67c.71-.68,1.39-1.39,2.03-2.14l-6.99-5.97Z"/></g><path class="cls-4" d="M21.86,46.33l-3.08,8.68c.08,.03,.17,.06,.25,.09,.61,.21,1.22,.41,1.85,.57h0l2.39-8.89c-.48-.13-.95-.29-1.42-.46Z"/><path d="M60.46,.24V56.64h-.78V.24h.78Z"/><g><path d="M85.48,18.88c-5.32,0-9.47,4.11-9.47,9.34s4.15,9.38,9.47,9.38c2.7,0,5.56-1.25,7.65-3.3l3.18,3.54c-2.9,2.94-7.05,4.83-11.12,4.83-8.3,0-14.7-6.24-14.7-14.38s6.48-14.22,14.9-14.22c4.03,0,8.14,1.73,10.87,4.51l-3.14,3.95c-2.01-2.26-4.87-3.67-7.65-3.67Z"/><path d="M114.2,14.25v28.19h-5.4V14.25h5.4Z"/><path d="M138.45,18.92c-2.54,0-4.19,.93-4.19,2.66,0,5.72,15.14,2.62,15.1,12.73,0,5.28-4.59,8.34-10.79,8.34-4.51,0-8.9-1.81-11.92-4.51l2.26-4.55c2.9,2.58,6.73,4.15,9.75,4.15s4.83-1.13,4.83-3.1c0-5.88-15.14-2.54-15.14-12.57,0-4.91,4.23-8.06,10.55-8.06,3.75,0,7.49,1.21,10.19,2.98l-2.17,4.67c-3.02-1.81-6.28-2.74-8.46-2.74Z"/><path d="M185.25,23.96c0,6.44-4.07,10.19-11.16,10.19h-6.16v8.3h-5.4V14.25h11.56c7.09,0,11.16,3.5,11.16,9.71Zm-5.11,.16c0-3.46-2.3-5.16-6.32-5.16h-5.88v10.43h5.88c4.03,0,6.32-1.73,6.32-5.28Z"/><path d="M214.29,36.48h-13.77l-2.5,5.96h-5.6l12.36-28.19h5.6l12.2,28.19h-5.8l-2.5-5.96Zm-1.93-4.63l-4.91-11.84-4.99,11.84h9.91Z"/></g></svg>