<?xml version="1.0" encoding="UTF-8"?><svg id="Ebene_1" xmlns="http://www.w3.org/2000/svg" viewBox="0 0 155.91 155.91"><defs><style>.cls-1{fill:none;}.cls-2,.cls-3{fill:#fff;}.cls-4{fill:#66c4dc;}.cls-5{fill:#009cc4;}.cls-6{fill:#99d7e7;}.cls-7{fill:#33b0d0;}.cls-3{font-family:Montserrat-Regular, Montserrat;font-size:11.93px;}</style></defs><g><text class="cls-3" transform="translate(27.92 -141.08) rotate(-48.75)"><tspan x="0" y="0">|</tspan></text><text class="cls-3" transform="translate(31.38 -144.93) rotate(-44.43)"><tspan x="0" y="0"> </tspan></text><text class="cls-3" transform="translate(34.42 -148.03) rotate(-38.21)"><tspan x="0" y="0">C</tspan></text><text class="cls-3" transform="translate(42.16 -153.86) rotate(-31.81)"><tspan x="0" y="0">I</tspan></text><text class="cls-3" transform="translate(46.28 -156.46) rotate(-25.84)"><tspan x="0" y="0">S</tspan></text><text class="cls-3" transform="translate(53.61 -159.99) rotate(-18.13)"><tspan x="0" y="0">P</tspan></text><text class="cls-3" transform="translate(62.02 -162.72) rotate(-10.39)"><tspan x="0" y="0">A</tspan></text><text class="cls-3" transform="translate(71.65 -164.28) rotate(-4.24)"><tspan x="0" y="0"> </tspan></text><text class="cls-3" transform="translate(75.88 -164.72) rotate(2.34)"><tspan x="0" y="0">H</tspan></text><text class="cls-3" transform="translate(86.2 -164.19) rotate(10.65)"><tspan x="0" y="0">E</tspan></text><text class="cls-3" transform="translate(94.91 -162.46) rotate(18.07)"><tspan x="0" y="0">L</tspan></text><text class="cls-3" transform="translate(102.18 -160.22) rotate(26.73)"><tspan x="0" y="0">M</tspan></text><text class="cls-3" transform="translate(112.61 -154.85) rotate(36.31)"><tspan x="0" y="0">H</tspan></text><text class="cls-3" transform="translate(120.82 -148.78) rotate(45.26)"><tspan x="0" y="0">O</tspan></text><text class="cls-3" transform="translate(128.24 -141.07) rotate(53.38)"><tspan x="0" y="0">L</tspan></text><text class="cls-3" transform="translate(132.63 -135.13) rotate(59.85)"><tspan x="0" y="0">T</tspan></text><text class="cls-3" transform="translate(136.5 -128.4) rotate(67.13)"><tspan x="0" y="0">Z</tspan></text><text class="cls-3" transform="translate(139.84 -120.01) rotate(73.04)"><tspan x="0" y="0"> </tspan></text><text class="cls-3" transform="translate(141.18 -115.89) rotate(79.22)"><tspan x="0" y="0">C</tspan></text><text class="cls-3" transform="translate(142.86 -106.71) rotate(87.1)"><tspan x="0" y="0">E</tspan></text><text class="cls-3" transform="translate(143.31 -98.07) rotate(95.41)"><tspan x="0" y="0">N</tspan></text><text class="cls-3" transform="translate(142.17 -87.69) rotate(103.34)"><tspan x="0" y="0">T</tspan></text><text class="cls-3" transform="translate(140.36 -80.15) rotate(110.71)"><tspan x="0" y="0">E</tspan></text><text class="cls-3" transform="translate(137.26 -72.02) rotate(118.71)"><tspan x="0" y="0">R</tspan></text><text class="cls-3" transform="translate(132.36 -63.52) rotate(124.92)"><tspan x="0" y="0"> </tspan></text><text class="cls-3" transform="translate(129.94 -59.9) rotate(131.09)"><tspan x="0" y="0">F</tspan></text><text class="cls-3" transform="translate(124.58 -53.64) rotate(138.85)"><tspan x="0" y="0">O</tspan></text><text class="cls-3" transform="translate(116.58 -46.77) rotate(147.57)"><tspan x="0" y="0">R</tspan></text><text class="cls-3" transform="translate(108.19 -41.69) rotate(153.83)"><tspan x="0" y="0"> </tspan></text><text class="cls-3" transform="translate(103.86 -39.63) rotate(158.28)"><tspan x="0" y="0">I</tspan></text><text class="cls-3" transform="translate(99.59 -37.8) rotate(165.04)"><tspan x="0" y="0">N</tspan></text><text class="cls-3" transform="translate(89.5 -35.24) rotate(173.19)"><tspan x="0" y="0">F</tspan></text><text class="cls-3" transform="translate(81.44 -34.23) rotate(-178.65)"><tspan x="0" y="0">O</tspan></text><text class="cls-3" transform="translate(70.86 -34.57) rotate(-169.98)"><tspan x="0" y="0">R</tspan></text><text class="cls-3" transform="translate(61.93 -36.07) rotate(-160.77)"><tspan x="0" y="0">M</tspan></text><text class="cls-3" transform="translate(50.81 -40.11) rotate(-151.54)"><tspan x="0" y="0">A</tspan></text><text class="cls-3" transform="translate(42.89 -44.5) rotate(-144.33)"><tspan x="0" y="0">T</tspan></text><text class="cls-3" transform="translate(36.34 -49.38) rotate(-138.66)"><tspan x="0" y="0">I</tspan></text><text class="cls-3" transform="translate(32.76 -52.35) rotate(-131.83)"><tspan x="0" y="0">O</tspan></text><text class="cls-3" transform="translate(25.81 -60.2) rotate(-122.7)"><tspan x="0" y="0">N</tspan></text><text class="cls-3" transform="translate(20.21 -69.39) rotate(-116.06)"><tspan x="0" y="0"> </tspan></text><text class="cls-3" transform="translate(18.22 -73.35) rotate(-110.29)"><tspan x="0" y="0">S</tspan></text><text class="cls-3" transform="translate(15.41 -81.08) rotate(-102.79)"><tspan x="0" y="0">E</tspan></text><text class="cls-3" transform="translate(13.51 -89.56) rotate(-94.95)"><tspan x="0" y="0">C</tspan></text><text class="cls-3" transform="translate(12.73 -98.71) rotate(-86.55)"><tspan x="0" y="0">U</tspan></text><text class="cls-3" transform="translate(13.41 -108.76) rotate(-78.07)"><tspan x="0" y="0">R</tspan></text><text class="cls-3" transform="translate(15.63 -118.27) rotate(-71.65)"><tspan x="0" y="0">I</tspan></text><text class="cls-3" transform="translate(17.15 -122.91) rotate(-65.87)"><tspan x="0" y="0">T</tspan></text><text class="cls-3" transform="translate(20.35 -129.98) rotate(-58.68)"><tspan x="0" y="0">Y</tspan></text></g><g><circle class="cls-1" cx="77.89" cy="77.95" r="45.92"/><g><g><path class="cls-7" d="M109.49,44.66l-10.31,10.87c.78,.74,1.53,1.52,2.23,2.34l11.39-9.72c-1.04-1.22-2.15-2.38-3.31-3.48Z"/><path class="cls-6" d="M103.9,40.11l-4.49,6.53c.82,.56,1.62,1.16,2.39,1.79l4.98-6.16c-.93-.76-1.9-1.48-2.89-2.16Z"/><path class="cls-4" d="M96.57,36.01l-4.33,9.73c1.13,.5,2.23,1.06,3.29,1.68l5.32-9.22c-1.38-.8-2.81-1.53-4.28-2.19Z"/><path class="cls-4" d="M88.61,33.31l-3.5,14.58c1.06,.25,2.09,.56,3.1,.92l5.01-14.14c-1.5-.53-3.04-.98-4.61-1.36Z"/><path class="cls-5" d="M81.5,32.19l-.98,12.49c.88,.07,1.74,.18,2.6,.32l1.96-12.4c-1.18-.19-2.37-.32-3.58-.41Z"/><path class="cls-4" d="M72.94,40.29c1.62-.21,3.28-.33,4.96-.33v-7.92c-2.03,0-4.03,.15-5.99,.4l1.03,7.85Z"/><path class="cls-5" d="M69.11,48.29c.77-.23,1.56-.44,2.35-.61l-3.11-14.64c-1.18,.25-2.35,.55-3.49,.89l4.25,14.36Z"/><path class="cls-4" d="M61.53,43.65c.89-.43,1.81-.81,2.74-1.17l-2.84-7.4c-1.13,.43-2.23,.9-3.32,1.42l3.41,7.15Z"/><path class="cls-6" d="M58.42,53.91c1.26-1.02,2.6-1.92,4.01-2.74l-7.49-12.98c-2.09,1.21-4.07,2.57-5.94,4.08l9.42,11.63Z"/><path class="cls-4" d="M42.99,48.14l6.02,5.14c.86-1.01,1.78-1.97,2.74-2.88l-5.45-5.74c-1.16,1.1-2.27,2.27-3.31,3.48Z"/><path class="cls-7" d="M38.74,53.96l12.79,7.84c.42-.69,.87-1.36,1.35-2.02l-12.13-8.81c-.71,.97-1.38,1.97-2.01,2.99Z"/><path class="cls-4" d="M34.22,63.76l10.13,3.29c.57-1.77,1.29-3.48,2.12-5.11l-9.49-4.84c-1.09,2.13-2.01,4.35-2.76,6.65Z"/><path class="cls-7" d="M40.37,72.01c.16-.99,.36-1.96,.59-2.93l-7.7-1.85c-.28,1.16-.52,2.34-.71,3.54l7.82,1.24Z"/><path class="cls-6" d="M31.98,77.95h14.96c0-.82,.06-1.62,.12-2.43l-14.93-1.18c-.09,1.19-.15,2.39-.15,3.6Z"/><path class="cls-5" d="M32.13,81.55c.16,2.02,.44,4.01,.85,5.95l7.75-1.65c-.34-1.6-.57-3.25-.7-4.92l-7.89,.62Z"/><path class="cls-5" d="M35.47,95.53l13.83-5.73c-.41-.99-.77-2.01-1.07-3.06l-14.36,4.25c.46,1.55,.99,3.06,1.6,4.53Z"/><path class="cls-4" d="M36.99,98.8c.73,1.43,1.53,2.82,2.41,4.16l6.64-4.31c-.72-1.11-1.39-2.26-1.99-3.44l-7.06,3.6Z"/><path class="cls-4" d="M43.78,108.67l9.32-8.4c-.58-.65-1.14-1.32-1.68-2.01l-9.95,7.63c.73,.95,1.5,1.88,2.3,2.77Z"/><path class="cls-5" d="M46.3,111.25c1.16,1.1,2.38,2.15,3.65,3.12l9.12-11.89c-.86-.66-1.68-1.36-2.46-2.1l-10.31,10.87Z"/><path class="cls-4" d="M52.89,116.45c2.01,1.31,4.12,2.46,6.33,3.44l4.33-9.73c-1.7-.76-3.32-1.64-4.86-2.64l-5.8,8.93Z"/><path class="cls-6" d="M69.53,123.09c1.18,.22,2.36,.4,3.57,.52l.83-7.88c-1-.1-1.98-.25-2.95-.43l-1.44,7.79Z"/><path class="cls-7" d="M77.89,123.87c2.03,0,4.03-.15,5.99-.4l-1.96-14.86c-1.32,.17-2.66,.29-4.04,.29-.27,0-.54-.03-.81-.04l-.39,14.98c.4,.01,.8,.03,1.21,.03Z"/><path class="cls-6" d="M87.91,111.77c-.88,.26-1.78,.49-2.68,.68l2.21,10.42c1.18-.25,2.35-.55,3.49-.89l-3.03-10.21Z"/><path class="cls-7" d="M91.94,105.51c-.96,.49-1.95,.92-2.96,1.31l5.37,13.99c1.5-.58,2.97-1.23,4.39-1.96l-6.8-13.35Z"/><path class="cls-7" d="M98.91,103.9c-1.13,.92-2.33,1.74-3.58,2.5l6.56,10.7c1.71-1.05,3.35-2.21,4.9-3.47l-7.88-9.73Z"/><path class="cls-5" d="M101.41,98.04c-.7,.82-1.45,1.6-2.23,2.34l10.31,10.87c1.16-1.1,2.27-2.27,3.31-3.48l-11.39-9.72Z"/></g><path class="cls-7" d="M67.57,107.08l-5.01,14.14c.14,.05,.27,.1,.41,.15,.99,.34,1.99,.66,3.01,.94h0l3.88-14.48c-.79-.21-1.55-.48-2.31-.75Z"/></g><g><path class="cls-2" d="M21.99,29.54l.7-.8,8.4,7.36-.7,.8-8.4-7.36Z"/><path class="cls-2" d="M36.26,27.25c-.76,.12-1.49,.05-2.19-.23-.7-.27-1.3-.73-1.8-1.37-.5-.64-.8-1.33-.9-2.08-.1-.75,0-1.47,.3-2.18,.3-.71,.78-1.32,1.44-1.84,.51-.4,1.05-.69,1.61-.85,.56-.16,1.12-.19,1.69-.09l-.15,1.07c-.9-.13-1.72,.09-2.46,.67-.49,.38-.84,.84-1.06,1.37-.22,.53-.29,1.07-.21,1.63s.31,1.08,.68,1.55c.37,.48,.82,.82,1.35,1.03,.52,.21,1.07,.27,1.64,.18,.57-.09,1.09-.33,1.58-.71,.73-.58,1.14-1.32,1.23-2.24l1.07,.11c-.03,.57-.2,1.12-.49,1.63-.29,.51-.69,.97-1.21,1.37-.66,.52-1.36,.84-2.12,.96Z"/><path class="cls-2" d="M38.87,15.67l1.02-.63,4.39,7.11-1.02,.63-4.39-7.11Z"/><path class="cls-2" d="M47.98,19.82c-.61,.08-1.13,.05-1.57-.09v-1.03c.41,.12,.87,.15,1.4,.1,.53-.05,1.03-.19,1.5-.42,.62-.3,1.04-.63,1.25-.99s.23-.72,.06-1.07c-.12-.26-.31-.43-.56-.51-.25-.08-.51-.1-.8-.07-.29,.03-.69,.1-1.19,.21-.63,.14-1.15,.22-1.57,.25-.41,.03-.81-.04-1.19-.2-.38-.16-.69-.49-.92-.97-.19-.4-.26-.81-.2-1.24,.06-.42,.25-.84,.59-1.24,.34-.4,.82-.75,1.46-1.06,.45-.21,.91-.37,1.4-.46,.49-.09,.93-.1,1.35-.04l.06,1.03c-.41-.05-.82-.04-1.23,.03-.41,.07-.79,.18-1.13,.35-.61,.29-1.01,.62-1.21,.99-.2,.37-.21,.73-.04,1.08,.12,.26,.31,.43,.56,.5,.25,.08,.52,.1,.82,.07,.3-.03,.69-.1,1.17-.21,.63-.14,1.15-.22,1.56-.25,.41-.03,.81,.04,1.19,.2,.38,.16,.69,.48,.91,.95,.19,.4,.25,.81,.2,1.24-.06,.43-.26,.85-.61,1.25s-.84,.75-1.48,1.06c-.57,.27-1.16,.45-1.77,.52Z"/><path class="cls-2" d="M58.18,7.89c.75,.3,1.26,.88,1.54,1.75,.28,.86,.2,1.64-.23,2.32-.43,.68-1.16,1.19-2.19,1.52l-1.96,.63,.78,2.41-1.14,.37-2.57-7.95,3.1-1c1.03-.33,1.92-.35,2.67-.05Zm.27,3.62c.28-.43,.33-.93,.14-1.51-.19-.58-.52-.96-.99-1.14-.48-.18-1.08-.16-1.8,.07l-1.93,.62,1.15,3.57,1.93-.62c.72-.23,1.22-.56,1.5-.99Z"/><path class="cls-2" d="M68.33,11.36l-4.37,.78-.54,2.22-1.21,.22,2.26-8.89,1.16-.21,5.2,7.56-1.23,.22-1.27-1.9Zm-.58-.87l-2.49-3.71-1.06,4.35,3.55-.63Z"/><path class="cls-2" d="M85.15,4.69l-.4,8.35-1.19-.06,.18-3.72-4.79-.23-.18,3.72-1.19-.06,.4-8.35,1.19,.06-.17,3.59,4.79,.23,.17-3.59,1.19,.06Z"/><path class="cls-2" d="M94,13.62l-.2,1.02-5.95-1.17,1.61-8.2,5.79,1.13-.2,1.02-4.61-.9-.49,2.52,4.11,.8-.19,1-4.11-.81-.52,2.65,4.78,.94Z"/><path class="cls-2" d="M99.16,7.5l1.13,.38-2.32,6.94,4.29,1.44-.33,.98-5.42-1.82,2.65-7.92Z"/><path class="cls-2" d="M110.61,21.46l2.77-5.42-5,3.13-.49-.25-.38-5.86-2.77,5.38-1.02-.52,3.82-7.43,.87,.45,.42,6.82,5.74-3.65,.87,.45-3.81,7.44-1.02-.52Z"/><path class="cls-2" d="M124.77,21.17l-5,6.69-.96-.72,2.23-2.98-3.84-2.87-2.23,2.98-.96-.71,5-6.69,.96,.71-2.15,2.88,3.84,2.87,2.15-2.88,.96,.71Z"/><path class="cls-2" d="M123.4,30.57c-.21-.74-.21-1.48-.01-2.21,.2-.73,.58-1.38,1.16-1.94,.58-.56,1.23-.93,1.97-1.11,.74-.18,1.47-.16,2.21,.07,.74,.23,1.4,.64,1.99,1.24,.58,.6,.98,1.27,1.19,2.01,.21,.74,.21,1.48,.01,2.2-.2,.73-.59,1.37-1.17,1.94-.58,.57-1.24,.94-1.97,1.12-.73,.18-1.46,.16-2.2-.07-.74-.23-1.4-.64-1.98-1.24-.59-.6-.99-1.28-1.19-2.02Zm3.41,2.17c.54,.16,1.09,.16,1.63,.03,.55-.14,1.04-.42,1.47-.84,.43-.42,.73-.9,.88-1.45,.15-.54,.16-1.09,.02-1.63-.14-.54-.43-1.04-.85-1.48-.43-.44-.92-.74-1.46-.9-.55-.16-1.09-.17-1.64-.03-.55,.14-1.04,.42-1.47,.84-.43,.42-.73,.9-.88,1.45-.15,.54-.16,1.09,0,1.64,.15,.55,.43,1.04,.86,1.48,.43,.44,.91,.74,1.45,.89Z"/><path class="cls-2" d="M136.01,32.78l.7,.96-5.91,4.31,2.67,3.65-.84,.61-3.37-4.62,6.75-4.93Z"/><path class="cls-2" d="M140.68,41.62l-1.41-2.49,.9-.51,3.41,6.01-.9,.51-1.41-2.49-6.36,3.61-.58-1.03,6.36-3.61Z"/><path class="cls-2" d="M140.55,56.13l-.96,.39-2.64-6.46,.75-.31,8.01,2.4-1.95-4.78,.96-.39,2.55,6.24-.75,.31-8-2.38,2.04,4.98Z"/><path class="cls-2" d="M142.25,64.88c.25-.73,.66-1.33,1.23-1.82,.57-.49,1.26-.8,2.06-.95,.8-.14,1.55-.08,2.26,.18,.7,.26,1.3,.69,1.78,1.3,.48,.6,.8,1.31,.94,2.14,.11,.64,.11,1.25-.01,1.82-.12,.57-.36,1.08-.72,1.53l-.88-.63c.54-.73,.73-1.56,.57-2.49-.11-.61-.34-1.14-.71-1.58-.36-.45-.81-.76-1.34-.96-.53-.19-1.09-.24-1.69-.13s-1.11,.34-1.54,.7c-.43,.36-.74,.82-.93,1.36-.19,.54-.23,1.12-.12,1.73,.16,.92,.63,1.63,1.4,2.14l-.61,.89c-.49-.3-.89-.7-1.21-1.2-.31-.5-.53-1.07-.64-1.71-.15-.82-.09-1.6,.15-2.32Z"/><path class="cls-2" d="M144.2,78.82l-1.04,.04-.22-6.06,8.35-.31,.22,5.89-1.04,.04-.17-4.7-2.56,.09,.15,4.19-1.01,.04-.15-4.19-2.7,.1,.18,4.87Z"/><path class="cls-2" d="M150.62,89.46l-8.31-.9,.11-.97,6.73-4.31-6.19-.67,.13-1.19,8.31,.9-.1,.97-6.73,4.31,6.19,.67-.13,1.19Z"/><path class="cls-2" d="M148.34,95.13l.7-2.78,1.01,.25-1.69,6.7-1.01-.25,.7-2.78-7.09-1.79,.29-1.15,7.09,1.79Z"/><path class="cls-2" d="M138.28,105.34l-.97-.38,2.23-5.64,7.77,3.07-2.17,5.48-.96-.38,1.73-4.37-2.39-.95-1.54,3.89-.94-.37,1.54-3.9-2.51-.99-1.79,4.53Z"/><path class="cls-2" d="M133.39,112.21l3.12-.3c.1-.2,.18-.36,.24-.47l1.02-1.79-2.21-1.26,.59-1.04,7.26,4.13-1.61,2.83c-.53,.94-1.18,1.55-1.94,1.84-.76,.28-1.53,.2-2.32-.25-.56-.32-.96-.73-1.2-1.23-.24-.5-.3-1.06-.19-1.67l-3.42,.34,.64-1.13Zm3.83,1.45c.09,.51,.39,.91,.92,1.21,.53,.3,1.03,.35,1.5,.17,.48-.19,.9-.61,1.27-1.27l1-1.76-3.27-1.86-1,1.76c-.37,.66-.52,1.24-.43,1.75Z"/><path class="cls-2" d="M132.95,125.08l-2.18-1.94-2.78,3.13-.77-.68,2.79-3.13-2.52-2.24,.79-.89,6.24,5.55-3.92,4.4-.78-.69,3.13-3.51Z"/><path class="cls-2" d="M121.91,126.65c.76-.15,1.49-.1,2.21,.15,.72,.25,1.33,.68,1.85,1.3,.52,.62,.84,1.29,.97,2.04,.13,.75,.05,1.48-.23,2.2-.28,.72-.74,1.35-1.38,1.89-.64,.54-1.34,.88-2.09,1.04-.76,.15-1.49,.1-2.2-.15-.71-.25-1.33-.68-1.85-1.3-.52-.62-.85-1.3-.97-2.04-.13-.74-.05-1.47,.23-2.19s.74-1.35,1.38-1.89c.65-.54,1.35-.89,2.1-1.05Zm-2.41,3.24c-.19,.53-.24,1.07-.14,1.63,.1,.56,.34,1.07,.73,1.53,.39,.46,.85,.79,1.38,.98,.53,.19,1.07,.24,1.63,.13,.55-.1,1.06-.35,1.53-.75,.47-.4,.8-.86,1-1.39,.2-.53,.25-1.08,.15-1.63-.1-.56-.34-1.07-.73-1.53-.39-.46-.85-.79-1.38-.98-.53-.19-1.08-.23-1.64-.13-.56,.11-1.07,.36-1.54,.75-.47,.4-.8,.86-.99,1.38Z"/><path class="cls-2" d="M109.72,134.84l2.88,1.25c.18-.13,.33-.23,.44-.29l1.76-1.08-1.32-2.17,1.02-.62,4.35,7.13-2.78,1.7c-.92,.56-1.79,.79-2.58,.67-.8-.12-1.44-.57-1.91-1.34-.33-.55-.49-1.1-.45-1.65,.04-.55,.25-1.07,.65-1.55l-3.15-1.36,1.11-.68Zm2.65,3.12c-.17,.49-.1,.99,.22,1.5,.31,.52,.73,.81,1.23,.88,.51,.07,1.08-.09,1.73-.49l1.73-1.06-1.96-3.21-1.73,1.06c-.65,.39-1.05,.83-1.22,1.32Z"/><path class="cls-2" d="M104.43,146.47l-1.12,.42-2.94-7.82,1.12-.42,2.94,7.82Z"/><path class="cls-2" d="M92.03,150.12l-1.99-8.11,.95-.23,6.35,4.86-1.48-6.05,1.16-.28,1.99,8.11-.95,.23-6.35-4.86,1.48,6.05-1.16,.28Z"/><path class="cls-2" d="M86.41,149.87l-.29-2.9-4.17,.41-.1-1.02,4.17-.41-.33-3.36,1.19-.12,.82,8.31-5.87,.58-.1-1.03,4.68-.46Z"/><path class="cls-2" d="M77.25,143.53c.66,.4,1.17,.93,1.52,1.6,.36,.67,.52,1.41,.48,2.21-.04,.8-.26,1.52-.68,2.16-.42,.63-.97,1.12-1.66,1.46-.69,.34-1.46,.49-2.3,.45-.83-.04-1.58-.26-2.24-.66-.66-.4-1.17-.93-1.52-1.6-.35-.67-.51-1.4-.47-2.21,.04-.81,.26-1.53,.67-2.16,.41-.63,.96-1.12,1.65-1.46,.69-.34,1.46-.49,2.29-.45,.84,.04,1.59,.26,2.25,.66Zm-3.97,.75c-.5,.26-.9,.62-1.21,1.1-.3,.48-.47,1.02-.5,1.62-.03,.6,.09,1.16,.35,1.66,.26,.5,.63,.9,1.11,1.2,.48,.3,1.02,.46,1.63,.49,.61,.03,1.17-.09,1.68-.34,.51-.26,.92-.62,1.22-1.1,.3-.48,.47-1.02,.5-1.62s-.09-1.16-.35-1.66c-.26-.5-.63-.9-1.12-1.2-.48-.3-1.03-.46-1.65-.49s-1.17,.09-1.67,.34Z"/><path class="cls-2" d="M62.72,141.29l1.27,2.87c.22,.03,.39,.05,.52,.08l2.02,.4,.5-2.49,1.17,.23-1.63,8.19-3.2-.63c-1.06-.21-1.85-.63-2.35-1.26-.51-.63-.67-1.39-.5-2.28,.13-.63,.39-1.14,.79-1.52,.4-.38,.91-.62,1.53-.71l-1.4-3.14,1.28,.25Zm-.17,4.09c-.45,.24-.74,.66-.86,1.25-.12,.59-.01,1.09,.31,1.48,.33,.39,.86,.67,1.6,.81l1.99,.4,.73-3.69-1.99-.4c-.74-.15-1.34-.1-1.79,.14Z"/><path class="cls-2" d="M52.06,137.78l-2.12,5.71,4.6-3.69,.51,.19,1.06,5.77,2.12-5.67,1.07,.4-2.92,7.83-.92-.34-1.21-6.72-5.27,4.3-.92-.34,2.91-7.83,1.07,.4Z"/><path class="cls-2" d="M42.75,135.22l3.85,2.2,1.83-1.36,1.07,.61-7.43,5.38-1.03-.59,.85-9.14,1.09,.62-.24,2.27Zm-.11,1.04l-.47,4.45,3.6-2.66-3.13-1.79Z"/><path class="cls-2" d="M34.79,136.09l2.29,1.73-.63,.83-5.51-4.17,.63-.83,2.29,1.73,4.41-5.84,.94,.71-4.41,5.83Z"/><path class="cls-2" d="M28.39,132.16l-.88-.81,5.68-6.13,.88,.81-5.68,6.13Z"/><path class="cls-2" d="M29.3,121.95c.16,.75,.11,1.49-.14,2.21-.25,.72-.68,1.33-1.29,1.85-.61,.52-1.29,.84-2.04,.97-.75,.13-1.48,.05-2.2-.22s-1.35-.74-1.9-1.38c-.54-.64-.89-1.33-1.04-2.09-.15-.75-.11-1.49,.14-2.2,.25-.71,.68-1.33,1.3-1.85,.62-.52,1.3-.85,2.04-.98,.74-.13,1.47-.05,2.19,.22,.72,.28,1.35,.73,1.89,1.37,.55,.64,.9,1.34,1.05,2.1Zm-3.25-2.4c-.53-.19-1.07-.24-1.63-.14-.56,.1-1.06,.35-1.53,.74-.46,.39-.79,.85-.98,1.38-.19,.53-.23,1.07-.13,1.63,.1,.55,.35,1.06,.75,1.53,.4,.47,.86,.8,1.39,1,.53,.2,1.08,.25,1.63,.15,.56-.1,1.06-.35,1.53-.74,.46-.39,.79-.85,.98-1.38,.19-.53,.23-1.08,.12-1.64-.11-.56-.36-1.07-.76-1.54s-.86-.8-1.39-.99Z"/><path class="cls-2" d="M13.19,112.84l7.15-4.32,.51,.84-2.74,7.51,5.33-3.22,.62,1.02-7.15,4.32-.51-.84,2.74-7.51-5.33,3.22-.62-1.02Z"/><path class="cls-2" d="M16.67,100.61c0,.62-.09,1.13-.28,1.55l-1.02-.12c.17-.39,.26-.85,.27-1.38,.01-.53-.07-1.04-.24-1.54-.22-.66-.5-1.11-.83-1.36-.33-.25-.68-.31-1.05-.19-.27,.09-.46,.25-.57,.49s-.17,.5-.17,.79c0,.29,.02,.69,.07,1.21,.06,.64,.08,1.17,.06,1.59-.02,.41-.13,.8-.35,1.16-.21,.36-.57,.63-1.07,.8-.42,.14-.84,.16-1.25,.05-.41-.11-.8-.35-1.16-.74-.36-.38-.65-.91-.88-1.58-.16-.47-.25-.95-.28-1.44s.01-.94,.13-1.34l1.03,.07c-.1,.4-.14,.81-.12,1.22,.02,.41,.09,.8,.21,1.16,.22,.64,.5,1.08,.84,1.32,.34,.24,.7,.3,1.07,.18,.27-.09,.46-.26,.57-.5,.11-.24,.17-.51,.17-.81,0-.3-.02-.7-.07-1.19-.06-.64-.08-1.17-.06-1.58,.02-.41,.13-.8,.34-1.16,.21-.36,.56-.62,1.06-.79,.42-.14,.83-.16,1.25-.04,.42,.11,.81,.36,1.16,.75,.35,.39,.65,.92,.87,1.59,.2,.6,.3,1.2,.3,1.82Z"/><path class="cls-2" d="M12.41,87.49l1.02-.2,1.17,5.95-8.2,1.62-1.14-5.79,1.02-.2,.91,4.61,2.52-.5-.81-4.11,.99-.2,.81,4.11,2.65-.52-.94-4.78Z"/><path class="cls-2" d="M12.57,83.21c-.33,.69-.81,1.25-1.44,1.67-.62,.42-1.34,.65-2.15,.7-.81,.05-1.55-.1-2.22-.45-.67-.34-1.21-.84-1.62-1.5-.41-.65-.64-1.4-.68-2.23-.04-.65,.04-1.25,.23-1.81,.19-.55,.48-1.03,.89-1.44l.79,.73c-.62,.66-.91,1.47-.85,2.4,.04,.62,.21,1.17,.51,1.66s.71,.85,1.22,1.11c.51,.25,1.06,.36,1.66,.33s1.14-.21,1.61-.52c.47-.31,.83-.72,1.08-1.24,.25-.52,.36-1.08,.32-1.7-.05-.93-.43-1.69-1.14-2.29l.71-.82c.45,.36,.8,.8,1.06,1.33,.25,.53,.4,1.12,.44,1.77,.05,.83-.09,1.6-.43,2.29Z"/><path class="cls-2" d="M12.01,74.52c-.69,.56-1.63,.79-2.82,.68l-4.73-.43,.11-1.19,4.68,.42c1.78,.16,2.74-.54,2.89-2.1,.07-.76-.1-1.36-.5-1.81-.4-.44-1.06-.71-1.96-.79l-4.68-.42,.1-1.15,4.73,.43c1.2,.11,2.08,.5,2.66,1.17,.57,.68,.81,1.57,.71,2.68-.1,1.11-.49,1.94-1.18,2.51Z"/><path class="cls-2" d="M15.26,60.05l-2.92,1.15c-.04,.22-.07,.39-.1,.52l-.49,2.01,2.47,.6-.28,1.16-8.12-1.97,.77-3.17c.26-1.05,.71-1.82,1.36-2.3,.65-.48,1.41-.61,2.3-.4,.63,.15,1.12,.44,1.49,.85,.37,.42,.58,.93,.64,1.56l3.19-1.26-.31,1.26Zm-4.08-.34c-.22-.46-.63-.77-1.22-.91-.59-.14-1.09-.06-1.49,.25-.41,.31-.7,.83-.88,1.57l-.48,1.97,3.65,.89,.48-1.97c.18-.73,.16-1.33-.07-1.8Z"/><path class="cls-2" d="M8.75,53.16l.41-1.12,7.84,2.88-.41,1.12-7.84-2.88Z"/><path class="cls-2" d="M12.55,46.73l-1.26,2.58-.93-.46,3.03-6.21,.93,.46-1.26,2.57,6.58,3.21-.52,1.06-6.58-3.21Z"/><path class="cls-2" d="M21.35,40.2l2.42,1.58-.65,.99-2.43-1.6-6.37-.21,.7-1.07,5.15,.18-2.21-4.66,.65-.99,2.75,5.77Z"/></g></g></svg>